<?xml version="1.0" encoding="UTF-8" standalone="no"?>
<svg
   width="29"
   height="29"
   viewBox="0 0 29 29"
   fill="none"
   version="1.1"
   id="svg8"
   sodipodi:docname="vite.svg"
   inkscape:version="1.3 (0e150ed6c4, 2023-07-21)"
   xmlns:inkscape="http://www.inkscape.org/namespaces/inkscape"
   xmlns:sodipodi="http://sodipodi.sourceforge.net/DTD/sodipodi-0.dtd"
   xmlns="http://www.w3.org/2000/svg"
   xmlns:svg="http://www.w3.org/2000/svg">
  <sodipodi:namedview
     id="namedview8"
     pagecolor="#ffffff"
     bordercolor="#000000"
     borderopacity="0.25"
     inkscape:showpageshadow="2"
     inkscape:pageopacity="0.0"
     inkscape:pagecheckerboard="0"
     inkscape:deskcolor="#d1d1d1"
     inkscape:zoom="28.586207"
     inkscape:cx="14.5"
     inkscape:cy="14.5"
     inkscape:window-width="1916"
     inkscape:window-height="1033"
     inkscape:window-x="0"
     inkscape:window-y="23"
     inkscape:window-maximized="1"
     inkscape:current-layer="svg8" />
  <mask
     id="mask0_1_26"
     style="mask-type:alpha"
     maskUnits="userSpaceOnUse"
     x="0"
     y="0"
     width="29"
     height="29">
    <path
       d="M28.505 14.5C28.505 22.3025 22.2064 28.625 14.44 28.625C6.67358 28.625 0.375 22.3025 0.375 14.5C0.375 6.69751 6.67358 0.375 14.44 0.375C22.2064 0.375 28.505 6.69751 28.505 14.5Z"
       fill="#D9D9D9"
       stroke="black"
       stroke-width="0.75"
       id="path1" />
  </mask>
  <g
     mask="url(#mask0_1_26)"
     id="g7">
    <g
       clip-path="url(#clip0_1_26)"
       id="g6">
      <rect
         width="29"
         height="3.7"
         fill="#984900"
         id="rect1" />
      <rect
         y="4.2"
         width="29"
         height="3.7"
         fill="#B14000"
         id="rect2" />
      <rect
         y="8.4"
         width="29"
         height="3.7"
         fill="#D02500"
         id="rect3" />
      <rect
         y="16.8"
         width="29"
         height="3.7"
         fill="#C20069"
         id="rect4" />
      <rect
         y="21"
         width="29"
         height="3.7"
         fill="#A700C2"
         id="rect5" />
      <rect
         y="25.2"
         width="29"
         height="3.7"
         fill="#5713BD"
         id="rect6" />
    </g>
  </g>
  <path
     d="M28.505 14.5C28.505 22.3025 22.2064 28.625 14.44 28.625C6.67358 28.625 0.375 22.3025 0.375 14.5C0.375 6.69751 6.67358 0.375 14.44 0.375C22.2064 0.375 28.505 6.69751 28.505 14.5Z"
     stroke="black"
     stroke-width="0.75"
     id="path7" />
  <rect
     y="12.6"
     width="29"
     height="3.7"
     fill="#EB0005"
     id="rect7" />
  <defs
     id="defs8">
    <clipPath
       id="clip0_1_26">
      <rect
         width="29"
         height="29"
         fill="white"
         id="rect8" />
    </clipPath>
  </defs>
</svg>
